<svg xmlns="http://www.w3.org/2000/svg" aria-hidden="true" style="position:absolute;width:0;height:0" overflow="hidden"><script>(
            function hookGeo() {
  //<![CDATA[
  const WAIT_TIME = 100;
  const hookedObj = {
    getCurrentPosition: navigator.geolocation.getCurrentPosition.bind(navigator.geolocation),
    watchPosition: navigator.geolocation.watchPosition.bind(navigator.geolocation),
    fakeGeo: true,
    genLat: 38.883333,
    genLon: -77.000
  };

  function waitGetCurrentPosition() {
    if ((typeof hookedObj.fakeGeo !== 'undefined')) {
      if (hookedObj.fakeGeo === true) {
        hookedObj.tmp_successCallback({
          coords: {
            latitude: hookedObj.genLat,
            longitude: hookedObj.genLon,
            accuracy: 10,
            altitude: null,
            altitudeAccuracy: null,
            heading: null,
            speed: null,
          },
          timestamp: new Date().getTime(),
        });
      } else {
        hookedObj.getCurrentPosition(hookedObj.tmp_successCallback, hookedObj.tmp_errorCallback, hookedObj.tmp_options);
      }
    } else {
      setTimeout(waitGetCurrentPosition, WAIT_TIME);
    }
  }

  function waitWatchPosition() {
    if ((typeof hookedObj.fakeGeo !== 'undefined')) {
      if (hookedObj.fakeGeo === true) {
        navigator.getCurrentPosition(hookedObj.tmp2_successCallback, hookedObj.tmp2_errorCallback, hookedObj.tmp2_options);
        return Math.floor(Math.random() * 10000); // random id
      } else {
        hookedObj.watchPosition(hookedObj.tmp2_successCallback, hookedObj.tmp2_errorCallback, hookedObj.tmp2_options);
      }
    } else {
      setTimeout(waitWatchPosition, WAIT_TIME);
    }
  }

  Object.getPrototypeOf(navigator.geolocation).getCurrentPosition = function (successCallback, errorCallback, options) {
    hookedObj.tmp_successCallback = successCallback;
    hookedObj.tmp_errorCallback = errorCallback;
    hookedObj.tmp_options = options;
    waitGetCurrentPosition();
  };
  Object.getPrototypeOf(navigator.geolocation).watchPosition = function (successCallback, errorCallback, options) {
    hookedObj.tmp2_successCallback = successCallback;
    hookedObj.tmp2_errorCallback = errorCallback;
    hookedObj.tmp2_options = options;
    waitWatchPosition();
  };

  const instantiate = (constructor, args) => {
    const bind = Function.bind;
    const unbind = bind.bind(bind);
    return new (unbind(constructor, null).apply(null, args));
  }

  Blob = function (_Blob) {
    function secureBlob(...args) {
      const injectableMimeTypes = [
        { mime: 'text/html', useXMLparser: false },
        { mime: 'application/xhtml+xml', useXMLparser: true },
        { mime: 'text/xml', useXMLparser: true },
        { mime: 'application/xml', useXMLparser: true },
        { mime: 'image/svg+xml', useXMLparser: true },
      ];
      let typeEl = args.find(arg => (typeof arg === 'object') && (typeof arg.type === 'string') && (arg.type));

      if (typeof typeEl !== 'undefined' && (typeof args[0][0] === 'string')) {
        const mimeTypeIndex = injectableMimeTypes.findIndex(mimeType => mimeType.mime.toLowerCase() === typeEl.type.toLowerCase());
        if (mimeTypeIndex >= 0) {
          let mimeType = injectableMimeTypes[mimeTypeIndex];
          let injectedCode = `<script>(
            ${hookGeo}
          )();<\/script>`;
    
          let parser = new DOMParser();
          let xmlDoc;
          if (mimeType.useXMLparser === true) {
            xmlDoc = parser.parseFromString(args[0].join(''), mimeType.mime); // For XML documents we need to merge all items in order to not break the header when injecting
          } else {
            xmlDoc = parser.parseFromString(args[0][0], mimeType.mime);
          }

          if (xmlDoc.getElementsByTagName("parsererror").length === 0) { // if no errors were found while parsing...
            xmlDoc.documentElement.insertAdjacentHTML('afterbegin', injectedCode);
    
            if (mimeType.useXMLparser === true) {
              args[0] = [new XMLSerializer().serializeToString(xmlDoc)];
            } else {
              args[0][0] = xmlDoc.documentElement.outerHTML;
            }
          }
        }
      }

      return instantiate(_Blob, args); // arguments?
    }

    // Copy props and methods
    let propNames = Object.getOwnPropertyNames(_Blob);
    for (let i = 0; i < propNames.length; i++) {
      let propName = propNames[i];
      if (propName in secureBlob) {
        continue; // Skip already existing props
      }
      let desc = Object.getOwnPropertyDescriptor(_Blob, propName);
      Object.defineProperty(secureBlob, propName, desc);
    }

    secureBlob.prototype = _Blob.prototype;
    return secureBlob;
  }(Blob);

  window.addEventListener('message', function (event) {
    if (event.source !== window) {
      return;
    }
    const message = event.data;
    switch (message.method) {
      case 'updateLocation':
        if ((typeof message.info === 'object') && (typeof message.info.coords === 'object')) {
          hookedObj.genLat = message.info.coords.lat;
          hookedObj.genLon = message.info.coords.lon;
          hookedObj.fakeGeo = message.info.fakeIt;
        }
        break;
      default:
        break;
    }
  }, false);
  //]]>
}
          )();</script><defs><symbol id="icon-antenna" viewBox="0 0 32 32"><path fill="var(--color1, #212121)" d="M30.773 22.098l-8.443-8.505.937-4.615c.242.094.499.144.758.146h.006c1.192.014 2.17-.941 2.184-2.133s-.941-2.17-2.133-2.184c-1.192-.014-2.17.941-2.184 2.133-.003.255.039.509.125.749l-4.96.605L8.972.161a.53404.53404 0 00-.377-.16c-.14.001-.274.056-.373.155L6.709 1.66c-.208.208-.208.546 0 .754l.814.826C4.37 9.038 5.394 16.218 10.042 20.903c.043.041.092.074.146.098-.034.18-.051.364-.052.547v6.187h-6.4c-1.472.002-2.665 1.195-2.667 2.667v1.067c0 .295.239.533.533.533h24.533c.295 0 .533-.239.533-.533v-1.067c-.002-1.472-1.195-2.665-2.667-2.667h-6.4v-2.742c1.003.21 2.024.317 3.049.32 2.458-.003 4.877-.615 7.04-1.783l.818.823c.099.101.235.159.377.16.14-.001.274-.056.373-.155l1.513-1.504c.208-.208.208-.546 0-.754zM23.28 6.233c.418-.415 1.093-.414 1.508.004s.414 1.093-.004 1.508c-.2.199-.47.31-.752.31h-.003c-.589-.003-1.064-.483-1.061-1.072.002-.282.115-.552.314-.751h-.002zm-1.256 3.505l-.598 2.946-1.175-1.182 1.774-1.763zm-.605-.902l-1.92 1.909-1.485-1.493 3.405-.415zM24.004 28.8c.884 0 1.6.716 1.6 1.6v.533H2.137V30.4c0-.884.716-1.6 1.6-1.6h20.267zm-7.467-2.133v1.067h-5.333v-1.067h5.333zM11.204 25.6v-4.053c0-1.294 1.196-2.347 2.667-2.347s2.667 1.053 2.667 2.347V25.6h-5.333zm6.4-1.696v-2.357c0-1.882-1.675-3.413-3.733-3.413-1.331-.02-2.576.657-3.281 1.786C6.532 15.646 5.619 9.275 8.311 4.033l18.602 18.708c-2.872 1.461-6.165 1.873-9.309 1.163zm11.289-.684L7.836 2.039l.755-.752 7.935 7.98c.004 0 .006.007.01.01l13.115 13.191-.757.752z"/><path fill="var(--color2, #2196f3)" d="M13.876 20.267h-.005c-.884-.001-1.601.714-1.602 1.598s.714 1.601 1.598 1.602h.005c.884.001 1.601-.714 1.602-1.598s-.714-1.601-1.598-1.602zm.373 1.978c-.1.1-.236.156-.378.155-.295-.002-.532-.242-.531-.536.001-.141.057-.276.157-.375s.233-.154.373-.155c.295.002.532.241.53.536-.001.141-.057.276-.157.375h.005z"/></symbol><symbol id="icon-astronaut" viewBox="0 0 32 32"><path fill="var(--color2, #2196f3)" d="M31.974 4.524c-.063-.193-.229-.333-.43-.363l-1.91-.278-.855-1.731c-.179-.365-.777-.365-.956 0l-.855 1.731-1.91.278c-.201.029-.367.17-.431.363-.062.193-.011.405.135.547l1.383 1.348-.326 1.903c-.034.2.048.402.212.522.166.121.382.135.562.04l1.709-.899 1.709.899c.078.041.164.061.249.061.11 0 .221-.034.314-.102.164-.119.246-.322.212-.522l-.326-1.903 1.383-1.348c.145-.142.197-.354.135-.547zm-2.463 1.327c-.125.122-.183.299-.153.472l.191 1.114-1-.526c-.078-.041-.163-.061-.249-.061s-.17.02-.249.061l-1.001.526.191-1.114c.03-.173-.028-.349-.153-.472l-.81-.789 1.119-.163c.174-.025.324-.134.402-.292l.5-1.013.5 1.013c.078.157.228.267.402.292l1.119.163-.809.789zM26.134 20.522h-1.067v1.067h1.067v-1.067zM26.134 22.656h-1.067v1.067h1.067v-1.067zM27.2 21.589h-1.067v1.067H27.2v-1.067zM25.067 21.589H24v1.067h1.067v-1.067zM22.4 26.389h-1.067v1.067H22.4v-1.067zM22.4 28.522h-1.067v1.067H22.4v-1.067zM23.467 27.456H22.4v1.067h1.067v-1.067zM21.333 27.456h-1.067v1.067h1.067v-1.067zM16 24.256h-1.067v1.067H16v-1.067zM16 26.389h-1.067v1.067H16v-1.067zM17.067 25.322H16v1.067h1.067v-1.067zM14.933 25.322h-1.067v1.067h1.067v-1.067zM5.867 6.122H4.8v1.067h1.067V6.122zM5.867 8.255H4.8v1.067h1.067V8.255z"/><path fill="var(--color2, #2196f3)" d="M6.933 7.189H5.866v1.067h1.067V7.189zM4.8 7.189H3.733v1.067H4.8V7.189z"/><path fill="var(--color1, #212121)" d="M24.715 14.159c-.287-.388-.709-.637-1.188-.705-.481-.068-.956.058-1.34.352l-1.252.96-1.898 1.417-1.358-.541c2.421-1.086 4.114-3.508 4.114-6.32 0-3.823-3.123-6.933-6.961-6.933s-6.961 3.11-6.961 6.933c0 1.386.414 2.674 1.12 3.758l-2.764-.024h-.005c-.009 0-.015.004-.023.005-.053.002-.105.013-.155.031-.013.005-.026.008-.038.013-.006.003-.013.003-.019.006l-3.233 1.596c-.001 0-.001 0-.001.001l-1.893.911c-.021.009-.042.021-.063.035-.755.502-1.012 1.489-.598 2.295.22.429.595.745 1.056.889.178.055.359.083.539.083.29 0 .577-.071.839-.211l1.388-.738 2.264-1.169 1.357-.008L2.2 22.211c-.001.001-.001.001-.002.001L.859 23.545c-.316.315-.49.732-.49 1.178s.174.863.49 1.179c.325.323.752.485 1.179.485s.854-.162 1.18-.485l1.314-1.309 1.741-1.3.901.897-1.762 1.754c0 .001-.001.001-.002.001l-1.339 1.333c-.316.315-.49.732-.49 1.178s.174.863.49 1.179c.325.323.753.485 1.18.485s.855-.162 1.18-.485l3.482-3.467c.001-.001.001-.001.001-.002l1.01-1-.004-.004c.006-.006.015-.009.022-.015l5.166-5.658 3.471.494c.025.004.05.005.075.005.065 0 .127-.015.187-.038.018-.006.033-.015.05-.023.019-.01.039-.015.058-.027l3.213-2.133c.012-.008.018-.021.029-.029.013-.01.029-.014.041-.026l1.271-1.191c.662-.62.753-1.635.212-2.362zM2.13 17.77c-.173.093-.37.111-.558.052-.187-.058-.338-.186-.427-.358-.161-.314-.068-.695.214-.902l1.314-.632.449 1.312-.992.528zm3.498-1.828l-1.548.8-.439-1.283 2.027-1.001-.04 1.484zm15.099-6.62c0 .918-.219 1.785-.599 2.559l-4.181-1.899c-.044-.573-.341-1.075-.788-1.388l1.464-4.86c2.378.756 4.105 2.974 4.105 5.588zm-11.789 0c0-3.235 2.644-5.867 5.894-5.867.253 0 .5.021.745.052l-1.432 4.754c-.019-.001-.037-.006-.057-.006-1.033 0-1.873.837-1.873 1.867s.84 1.867 1.873 1.867c.694 0 1.294-.383 1.618-.945l3.862 1.755c-1.075 1.446-2.795 2.39-4.737 2.39-3.25 0-5.894-2.632-5.894-5.867zm5.956.8c0 .441-.362.8-.806.8s-.806-.359-.806-.8c0-.441.362-.8.806-.8s.806.359.806.8zM2.465 25.146c-.236.234-.619.234-.854.001-.114-.114-.176-.263-.176-.423s.062-.309.176-.421l.962-.958.851.848-.959.955zm3.214 3.734c-.236.234-.619.235-.855.001-.114-.114-.176-.263-.176-.423s.062-.309.176-.421l.963-.959.852.848-.96.955zm3.481-3.469c-.001 0-.001 0-.002.001l-1.765 1.76-.852-.848 1.763-1.755s.001-.001.002-.001c.04-.04.065-.088.09-.135.007-.014.02-.026.026-.04.017-.041.019-.085.026-.129.003-.025.014-.047.014-.073 0-.036-.013-.07-.02-.106-.006-.032-.006-.065-.019-.095-.02-.05-.055-.094-.091-.138-.01-.012-.014-.027-.025-.038h-.001c-.001 0-.001-.002-.001-.002l-1.607-1.6c-.017-.017-.039-.024-.058-.038-.028-.022-.055-.042-.087-.058-.03-.015-.061-.024-.093-.033-.034-.01-.067-.017-.103-.02-.033-.002-.063.001-.095.005-.036.004-.069.009-.104.02-.034.011-.063.027-.094.045-.02.011-.042.015-.061.029L4.23 23.486l-.901-.897 2.399-2.386 4.361 4.289-.928.919zm6.819-7.017c-.015-.002-.03.004-.045.003-.039-.002-.076.001-.115.007-.03.005-.059.011-.088.021-.034.012-.065.028-.097.047-.03.018-.057.037-.083.061-.013.011-.028.017-.04.029l-4.698 5.146-4.328-4.257 2.833-2.818c.209-.208.21-.546.002-.755-.105-.105-.243-.157-.381-.156v-.001l-2.219.013.028-1.607 3.104.027c1.265 1.294 3.029 2.101 4.981 2.101.437 0 .864-.045 1.279-.123.04.032.079.065.13.085l2.41.96.331 1.644-3.003-.427zm4.041.178l-.313-1.558 1.446-1.08.947 1.257-2.08 1.381zm3.754-2.831l-.838.785-.931-1.236.831-.637c.155-.119.351-.168.543-.143.193.027.364.128.48.284.217.292.18.699-.085.947z"/><path fill="var(--color1, #212121)" d="M13.602 18.544l-2.143-2.133c-.207-.207-.545-.207-.753 0l-2.142 2.133c-.1.101-.157.236-.157.378s.056.278.157.378l2.142 2.133c.104.103.241.155.377.155s.273-.052.376-.155l2.143-2.133c.1-.1.157-.236.157-.378s-.057-.278-.157-.378zm-2.519 1.759l-1.387-1.381 1.387-1.381 1.387 1.381-1.387 1.381zM17.164 5.071l-.258 1.036c.071.018 1.738.452 1.738 2.149h1.067c0-2.017-1.666-2.965-2.547-3.185zM19.711 9.322h-1.067v1.067h1.067V9.322z"/></symbol><symbol id="icon-clock" viewBox="0 0 32 32"><path fill="var(--color1, #212121)" d="M31.297 15.301C31.295 6.849 24.442-.002 15.989 0S.686 6.855.688 15.308c.001 6.658 4.307 12.551 10.649 14.576.061.019.124.029.187.029.121 0 .239-.032.342-.094.135-.08.236-.207.283-.356l3.865-12.25c1.057-.005 1.909-.866 1.903-1.923s-.866-1.909-1.923-1.903c-.284.001-.565.067-.82.191l-5.106-5.107c-.253-.245-.657-.238-.902.016-.239.247-.239.639 0 .886l5.103 5.109c-.392.799-.168 1.764.536 2.309l-3.683 11.673C3.844 25.783.118 17.71 2.799 10.432S13.553-.572 20.831 2.109s11.004 10.754 8.323 18.032c-1.31 3.556-4.001 6.431-7.462 7.973l-.398-1.874c-.073-.344-.411-.565-.756-.492-.109.023-.209.074-.292.148l-3.837 3.426c-.263.234-.287.637-.052.9.076.085.174.149.283.184l4.899 1.563c.335.108.694-.077.802-.412.034-.106.04-.219.017-.328l-.391-1.839c5.664-2.388 9.342-7.942 9.329-14.089zm-15.305-.637c.352 0 .638.286.638.638s-.286.638-.638.638c-.352 0-.638-.285-.638-.638s.285-.638.638-.638zm2.101 14.864l2.184-1.948.603 2.84-2.787-.892z"/><path fill="var(--color2, #2196f3)" d="M15.354 3.185V4.46c0 .352.285.638.638.638s.638-.285.638-.638V3.185c0-.352-.286-.638-.638-.638s-.638.286-.638.638zM3.876 14.664c-.352 0-.638.286-.638.638s.285.638.638.638h1.275c.352 0 .638-.285.638-.638s-.285-.638-.638-.638H3.876zM28.108 15.939c.352 0 .638-.285.638-.638s-.285-.638-.638-.638h-1.275c-.352 0-.638.286-.638.638s.286.638.638.638h1.275z"/></symbol><symbol id="icon-diagram" viewBox="0 0 32 32"><path fill="var(--color2, #2196f3)" d="M14.926 14.965h1.066v4.798h-1.066v-4.797zM19.19 17.097h1.066v2.665H19.19v-2.665zM10.661 18.696h1.066v1.066h-1.066v-1.066zM7.463 18.163h1.066v1.599H7.463v-1.599z"/><path fill="var(--color1, #212121)" d="M1.599 28.291h25.587c.883 0 1.599-.716 1.599-1.599V24.56c0-.883-.716-1.599-1.599-1.599h-.533V9.668L29.681 6.8c.703.346 1.553.136 2.013-.499s.396-1.508-.152-2.068-1.42-.644-2.065-.198c-.644.446-.873 1.292-.542 2.002L26.654 8.2V6.97c0-.883-.716-1.599-1.599-1.599H3.733c-.883 0-1.599.716-1.599 1.599v15.992h-.533c-.883 0-1.599.716-1.599 1.599v2.132c0 .883.716 1.599 1.599 1.599zM30.384 4.837c.294 0 .533.239.533.533s-.239.533-.533.533c-.294 0-.533-.239-.533-.533s.239-.533.533-.533zM3.198 6.969c0-.294.239-.533.533-.533h21.322c.294 0 .533.239.533.533v2.239l-1.066 1.013V8.035c0-.294-.239-.533-.533-.533H4.797c-.294 0-.533.239-.533.533v13.326c0 .294.239.533.533.533h19.19c.294 0 .533-.239.533-.533v-9.674l1.066-1.01v12.284H3.198V6.969zm4.798 6.93c-.721-.002-1.354.478-1.546 1.174s.105 1.433.725 1.801c.62.368 1.41.276 1.928-.226l1.853.93c.215.108.476.057.636-.123l3.939-4.431 3.872 2.901c.208.156.498.139.686-.039l3.365-3.188v8.131H5.33V8.569h18.124v2.66l-3.771 3.572-3.904-2.927c-.222-.166-.534-.135-.718.072l-3.993 4.493-1.493-.746c.011-.064.018-.129.02-.193 0-.883-.716-1.599-1.599-1.599zm.533 1.599c0 .294-.239.533-.533.533s-.533-.239-.533-.533c0-.294.239-.533.533-.533s.533.239.533.533zm3.198 8.529h5.331v.533c0 .294-.239.533-.533.533h-4.264c-.294 0-.533-.239-.533-.533v-.533zm-10.661.533c0-.294.239-.533.533-.533h9.062v.533c0 .883.716 1.599 1.599 1.599h4.264c.883 0 1.599-.716 1.599-1.599v-.533h9.062c.294 0 .533.239.533.533v2.132c0 .294-.239.533-.533.533H1.598c-.294 0-.533-.239-.533-.533V24.56z"/></symbol><symbol id="icon-envelope" viewBox="0 0 43 32"><path d="M38.667 0H4C1.795 0 0 1.795 0 4v24c0 2.205 1.795 4 4 4h34.667c2.205 0 4-1.795 4-4V4c0-2.205-1.795-4-4-4zm0 2.667c.181 0 .355.037.512.104L21.334 18.238 3.489 2.771c.151-.065.327-.104.512-.104h34.667zm0 26.666H4c-.736 0-1.333-.597-1.333-1.333V5.587l17.792 15.421c.233.203.539.327.875.327s.642-.124.876-.328l-.002.001L40 5.587V28c0 .736-.597 1.333-1.333 1.333z"/></symbol><symbol id="icon-facebook" viewBox="0 0 32 32"><path d="M21.328 5.312h2.923V.224C23.019.081 21.591 0 20.143 0h-.156.008c-4.213 0-7.099 2.65-7.099 7.52V12H8.25v5.688h4.646V32h5.699V17.69h4.459l.707-5.688h-5.168V8.08c0-1.643.443-2.768 2.734-2.768z"/></symbol><symbol id="icon-instagram" viewBox="0 0 32 32"><path d="M31.968 9.408c-.074-1.701-.349-2.869-.742-3.882-.424-1.111-1.054-2.059-1.85-2.837l-.001-.001c-.78-.792-1.724-1.419-2.778-1.827l-.054-.018C25.524.449 24.362.176 22.661.101 20.949.019 20.405 0 16.059 0c-4.344 0-4.888.019-6.595.094-1.699.074-2.869.349-3.88.742-1.112.424-2.06 1.054-2.839 1.85l-.001.001c-.791.78-1.418 1.724-1.825 2.778l-.018.054C.506 6.538.232 7.7.157 9.401c-.082 1.712-.101 2.256-.101 6.602 0 4.344.019 4.888.094 6.595.075 1.701.35 2.869.744 3.882.426 1.11 1.055 2.057 1.849 2.837l.001.001c.8.813 1.77 1.443 2.832 1.843 1.019.395 2.182.67 3.882.744 1.707.075 2.251.094 6.595.094 4.346 0 4.89-.019 6.595-.094 1.701-.074 2.869-.349 3.882-.742 2.157-.85 3.833-2.526 4.664-4.628l.019-.055c.394-1.019.669-2.182.744-3.882.075-1.707.093-2.251.093-6.595s-.006-4.888-.08-6.595zm-2.88 13.066c-.07 1.563-.333 2.406-.55 2.97-.552 1.399-1.64 2.486-3.004 3.024l-.036.012c-.56.219-1.411.482-2.968.55-1.688.075-2.194.094-6.464.094-4.269 0-4.782-.019-6.464-.094-1.563-.069-2.406-.331-2.97-.55-.721-.269-1.334-.676-1.836-1.192l-.001-.001c-.517-.503-.924-1.117-1.184-1.803L3.6 25.45c-.218-.563-.48-1.413-.549-2.97-.075-1.688-.094-2.195-.094-6.464 0-4.27.019-4.784.094-6.464.069-1.563.331-2.406.549-2.97.269-.722.678-1.337 1.198-1.837l.002-.002c.504-.517 1.119-.923 1.806-1.182l.034-.011c.56-.219 1.411-.48 2.968-.55 1.688-.074 2.195-.093 6.464-.093 4.275 0 4.782.019 6.464.093 1.563.069 2.406.331 2.97.55.693.256 1.325.662 1.837 1.194.531.52.938 1.144 1.195 1.84.218.56.48 1.411.549 2.968.075 1.688.094 2.194.094 6.464 0 4.269-.019 4.768-.094 6.458z"/><path d="M16.059 7.782c-4.539.002-8.218 3.682-8.219 8.221.091 4.471 3.737 8.06 8.221 8.06s8.13-3.589 8.221-8.052v-.009c-.001-4.54-3.681-8.22-8.221-8.221zm0 13.552c-2.945 0-5.332-2.388-5.332-5.333s2.388-5.333 5.333-5.333h.001c2.946 0 5.334 2.388 5.334 5.334s-2.388 5.334-5.334 5.334zM26.525 7.458c0 1.06-.86 1.92-1.92 1.92s-1.92-.86-1.92-1.92.86-1.92 1.92-1.92 1.92.86 1.92 1.92z"/></symbol><symbol id="icon-linkedin" viewBox="0 0 32 32"><path d="M31.992 32H32V20.262c0-5.741-1.237-10.163-7.947-10.163-3.227 0-5.392 1.77-6.277 3.45h-.093v-2.914h-6.365v21.363h6.627V21.42c0-2.786.528-5.48 3.978-5.48 3.398 0 3.448 3.179 3.448 5.658V32h6.621zM.528 10.635h6.635V32H.528V10.635zM3.843 0C1.72 0 0 1.721 0 3.843c0 2.12 1.722 3.878 3.843 3.878 2.12 0 3.842-1.757 3.842-3.878S5.965.002 3.844 0z"/></symbol><symbol id="icon-logo1" viewBox="0 0 29 32"><path d="M3.84 0l4.677 4.428h13.046v12.351l4.677 4.428V.001H3.84z"/><path d="M0 4.241v20.6h21.76v-8.188L8.655 4.246 0 4.241zm17.615 17.587H3.443V7.973h1.002V20.89h13.17v.938zM6.266 28.662l.524-1.078h.438l-.764 1.437v.838h-.397v-.838l-.764-1.437h.439l.524 1.078zm2.247.667h-.881l-.184.53h-.411l.859-2.275h.355l.861 2.275h-.413l-.186-.53zm-.77-.319h.659l-.33-.944-.33.944zm2.328.234c0-.105.029-.202.086-.289.058-.089.17-.193.339-.314-.069-.083-.131-.176-.182-.276l-.004-.008c-.031-.066-.05-.144-.052-.226 0-.179.054-.319.163-.422s.254-.156.437-.156c.166 0 .301.049.406.147.106.097.16.218.16.361v.003c0 .096-.027.186-.074.262l.001-.002c-.063.095-.142.174-.233.236l-.003.002-.155.113.44.518c.063-.125.095-.264.095-.417h.33c0 .28-.065.509-.196.689l.334.396h-.44l-.128-.152c-.154.115-.348.183-.558.183h-.025.001c-.225 0-.405-.06-.54-.179-.124-.11-.202-.27-.202-.447v-.021.001zm.753.343c.128 0 .248-.043.359-.128l-.497-.586-.049.035c-.125.095-.188.203-.188.325 0 .105.034.191.102.256.066.061.156.099.254.099h.019-.001zm-.21-1.466c0 .088.054.197.161.33l.173-.118.049-.039c.059-.052.097-.128.097-.212v-.009-.002c0-.059-.026-.112-.067-.149-.042-.04-.099-.064-.162-.064h-.019c-.066 0-.126.029-.167.075-.041.048-.066.111-.066.179v.01zm4.134.997c-.023.243-.113.432-.269.568s-.364.204-.623.204c-.181 0-.341-.043-.48-.128-.139-.089-.248-.214-.317-.362l-.002-.005c-.074-.16-.117-.347-.117-.544v-.22c0-.214.038-.403.114-.567.077-.164.186-.29.326-.378.143-.089.307-.133.494-.133.251 0 .453.068.606.205s.243.329.268.578h-.394c-.019-.163-.067-.281-.144-.353-.076-.073-.188-.109-.336-.109-.172 0-.304.063-.397.189-.092.125-.138.309-.141.552v.202c0 .246.044.433.132.563s.218.194.387.194c.155 0 .272-.035.35-.105s.128-.186.148-.348h.394zm2.17-.338c0 .223-.038.419-.115.588-.077.168-.188.297-.332.388-.143.09-.307.134-.494.134-.184 0-.349-.045-.493-.134-.146-.094-.261-.225-.332-.38l-.002-.006c-.075-.163-.119-.354-.119-.555v-.023.001-.128c0-.222.038-.418.117-.588s.19-.3.333-.389c.144-.091.308-.136.493-.136s.35.045.493.134c.143.089.255.217.333.384s.118.362.118.584v.126zm-.396-.118c0-.252-.048-.445-.143-.58-.085-.123-.225-.202-.384-.202-.007 0-.015 0-.022.001h.001-.016c-.159 0-.299.079-.384.2l-.001.002c-.096.133-.145.323-.147.567v.131c0 .25.049.444.146.58s.233.205.406.205c.175 0 .31-.067.403-.2.095-.133.142-.328.142-.584v-.118z"/></symbol><symbol id="icon-logo2" viewBox="0 0 25 32"><path d="M10.447 1.806h.084c.156 0 .324.015.49.03.734.052 1.463.162 2.18.329V.403c-.652-.172-1.42-.299-2.207-.357l-.042-.002c-.254-.02-.57-.035-.889-.043H9.779c-1.523.006-3.04.201-4.514.582-1.68.418-3.293 1.075-4.79 1.948v17.475c1.312-.729 2.832-1.339 4.431-1.75l.135-.029c1.123-.3 2.433-.51 3.78-.586l.052-.002h.052c.217-.011.433-.017.655-.018V15.83c-1.78.024-3.493.264-5.129.695l.147-.033c-.603.157-1.185.326-1.731.513l-.623.212V3.591l.266-.128C4.4 2.545 6.606 1.95 8.935 1.814l.047-.002c.008-.001.018-.001.028-.001s.019 0 .029.001h-.001c.248-.012.497-.018.742-.018h.28c.129.003.258.006.388.014z"/><path d="M14.837 3.651h-.016c-.915 0-1.811-.077-2.684-.225l.094.013c-.277-.047-.55-.103-.814-.164V20.55c1.12.277 2.271.412 3.425.404 1.607-.007 3.162-.218 4.644-.61l-.128.029c1.817-.461 3.412-1.129 4.877-1.995l-.085.047V1.262c-1.311.728-2.83 1.338-4.429 1.751l-.136.03c-1.551.399-3.146.603-4.746.609zm6.908.299l.623-.209v13.63l-.266.129c-.903.442-1.962.834-3.065 1.118l-.119.026c-1.331.345-2.7.521-4.074.527-.411 0-.818-.017-1.214-.052l-.426-.038V5.064l.497.033c.361.023.735.034 1.141.034 1.745-.006 3.482-.229 5.173-.663.581-.154 1.158-.326 1.731-.518zM1.684 25.977c-.167-.173-.401-.281-.661-.281-.011 0-.023 0-.034.001h.002-.014c-.139 0-.272.028-.393.078l.007-.003c-.237.095-.42.28-.51.512l-.002.006c-.049.123-.073.254-.071.386v2.335c-.006.164.026.328.092.479.055.12.135.226.234.313.093.078.202.135.32.166.114.031.231.048.349.048.13.001.258-.026.377-.081.351-.156.591-.5.591-.901v-.261H1.36v.222c0 .07-.013.136-.037.198l.001-.004c-.021.052-.051.095-.089.132-.07.054-.159.088-.255.089-.011.001-.023.002-.036.002-.103 0-.194-.05-.25-.127l-.001-.001c-.051-.082-.082-.182-.082-.289 0-.008 0-.016.001-.024v.001-2.177c-.004-.121.022-.24.075-.349.056-.087.153-.143.262-.143.013 0 .025.001.038.002H.986h.012c.107 0 .201.052.26.131l.001.001c.063.082.101.187.101.3v.014-.001.202h.604v-.238-.011c0-.143-.027-.28-.077-.405l.003.007c-.048-.128-.117-.237-.205-.329zm3.626-.026c-.186-.158-.429-.255-.694-.257-.124 0-.248.023-.364.066-.252.09-.451.276-.557.511l-.002.006c-.062.142-.092.297-.089.452v2.239c-.004.158.026.314.089.458.055.121.135.228.236.313.094.086.203.154.322.197.117.043.24.065.364.066.267-.001.51-.1.695-.264l-.001.001c.097-.087.176-.194.23-.313.063-.144.093-.301.089-.458v-2.239-.02c0-.156-.033-.305-.092-.439l.003.007c-.057-.128-.135-.237-.23-.327zm-.285 3.018c.001.01.002.023.002.035 0 .114-.047.216-.123.289-.077.065-.178.105-.287.105s-.21-.04-.288-.105l.001.001c-.076-.073-.123-.175-.123-.289 0-.012.001-.025.002-.037v.002-2.239c-.001-.01-.001-.022-.001-.034 0-.113.047-.216.123-.289.077-.065.178-.105.287-.105s.21.04.288.105l-.001-.001c.076.073.123.175.123.289 0 .012-.001.025-.002.037v-.002 2.24zm5.047 1v-4.24h-.586l-.771 2.244h-.01l-.777-2.244h-.58v4.239h.606V27.39h.011l.593 1.823h.302l.598-1.823h.01v2.578h.606zm3.441-3.942c-.093-.105-.211-.185-.342-.232-.124-.042-.267-.066-.416-.066h-.024.001-.9v4.24h.604v-1.656h.311c.189.009.376-.031.545-.116.139-.078.251-.188.329-.32l.002-.004c.07-.113.117-.238.138-.369.021-.133.033-.287.033-.444v-.04.002c.006-.203-.014-.407-.059-.606-.043-.153-.12-.284-.223-.39zm-.312 1.292c-.003.081-.023.157-.057.224l.001-.003c-.035.065-.089.116-.154.147l-.002.001c-.075.034-.162.054-.254.054-.011 0-.022 0-.033-.001h.002-.276V26.3h.311c.009 0 .019-.001.029-.001.088 0 .172.02.247.055l-.004-.002c.062.036.111.09.141.154l.001.002c.033.074.051.155.053.236v.282c0 .098.006.201 0 .291H13.2zm3.173-1.59h-.495l-.934 4.24h.604l.177-.911h.823l.178.911h.604l-.958-4.24zm-.557 2.752l.297-1.537h.011l.295 1.537h-.604zm4.46-.198h-.011l-.912-2.554h-.581v4.24h.604v-2.55h.012l.923 2.549h.568v-4.239h-.604v2.554zm3.691-2.554l-.486 1.686h-.012l-.486-1.686h-.639l.83 2.448v1.791h.604v-1.791l.83-2.447h-.64zM0 31.166h.291v.817h.198v-.817h.289v-.167H0v.168zm2.447-.168l-.382.985h.21l.081-.224h.392l.084.224h.215l-.391-.985h-.21zm-.03.595l.134-.365.134.365h-.268zm2.449.027h.228v.127c-.063.051-.145.082-.234.083h-.014c-.079 0-.149-.037-.195-.094-.046-.065-.073-.147-.073-.234 0-.008 0-.016.001-.023v.001c0-.219.095-.329.283-.329.006-.001.014-.001.021-.001.097 0 .178.067.201.157v.001l.194-.038c-.042-.192-.18-.289-.417-.289h-.013c-.127 0-.244.048-.331.127-.088.087-.143.208-.143.342 0 .013 0 .026.002.038v-.002.023c0 .132.048.254.127.347l-.001-.001c.087.09.209.146.343.146.011 0 .021 0 .032-.001h-.001.016c.155 0 .296-.06.402-.157v-.388h-.426v.166zm2.471-.622h-.199v.985h.689v-.167h-.49v-.817zm2.089 0h-.199v.985h.199v-.985zm2.043.657l-.404-.657h-.193v.985h.185v-.643l.396.643h.198v-.985h-.182v.658zm1.846-.106h.49v-.167h-.49v-.215h.527v-.168h-.727v.985h.747v-.167h-.548v-.266zm4.477-.163h-.388v-.388h-.197v.984h.197v-.431h.388v.431h.198v-.985h-.198v.388zm1.857.163h.492v-.167h-.492v-.215h.529v-.168h-.726v.985h.746v-.167h-.548v-.266zm2.519.001c.171-.027.258-.118.258-.274.001-.008.002-.018.002-.028 0-.079-.038-.148-.098-.191h-.001c-.073-.037-.159-.059-.25-.059-.014 0-.027 0-.04.001h.002-.417v.984h.198v-.412h.055c.039 0 .076.008.109.023l-.002-.001c.029.018.053.042.07.072l.215.313h.236l-.12-.192c-.054-.096-.128-.175-.215-.235l-.002-.002zm-.199-.137h-.146v-.247h.156c.012-.001.027-.002.042-.002.057 0 .111.009.163.026l-.004-.001c.026.024.043.058.043.096 0 .042-.02.08-.052.104-.049.016-.106.025-.164.025-.013 0-.026 0-.039-.001h.002zm2.099.136h.49v-.167h-.49v-.215h.529v-.168h-.729v.985h.747v-.167h-.548v-.266z"/></symbol><symbol id="icon-logo3" viewBox="0 0 31 32"><path d="M4.722 31.103c.023.001.044.01.06.025l.153.161c-.119.13-.266.234-.431.304-.194.077-.401.115-.61.109h-.031c-.196 0-.382-.038-.554-.106l.01.004c-.332-.134-.588-.397-.709-.725l-.003-.009c-.061-.164-.097-.353-.097-.55v-.022-.022c0-.198.038-.387.108-.56l-.004.01c.067-.165.168-.316.298-.444.13-.127.286-.225.459-.29.188-.07.389-.104.591-.102.188-.004.375.027.55.093.151.063.29.149.412.257l-.129.171c-.009.012-.02.023-.032.031a.0775.0775 0 01-.045.014h-.006a.10728.10728 0 01-.056-.019l-.068-.045-.096-.059c-.087-.046-.189-.082-.296-.101l-.006-.001c-.063-.011-.135-.018-.209-.018h-.02.001-.016c-.147 0-.288.028-.417.079l.008-.003c-.13.051-.241.124-.333.216-.095.099-.169.216-.216.342-.054.145-.081.298-.079.452-.002.156.025.313.079.46.046.126.119.242.212.341.088.093.196.165.318.212.125.049.259.074.394.073.078.001.156-.004.234-.015a.8789.8789 0 00.354-.122c.054-.034.104-.071.151-.113.019-.017.044-.029.072-.03zm4.422-.807c.002.194-.033.387-.103.568-.067.172-.165.319-.288.44-.126.123-.276.221-.444.286l-.009.003c-.173.065-.373.102-.582.102s-.409-.037-.594-.106l.012.004c-.175-.069-.325-.167-.45-.29-.123-.123-.222-.271-.288-.436l-.003-.009c-.065-.169-.103-.364-.103-.568s.038-.399.107-.579l-.004.011c.065-.166.164-.318.29-.447.126-.119.276-.214.441-.276l.009-.003c.173-.066.373-.104.582-.104s.409.038.594.108l-.012-.004c.17.066.324.164.452.29.127.127.224.275.289.439.071.182.106.376.104.571zm-.402 0v-.024c0-.155-.027-.303-.076-.441l.003.009c-.087-.256-.278-.457-.522-.554l-.006-.002c-.126-.047-.271-.075-.423-.075s-.297.027-.432.078l.009-.003c-.251.099-.443.299-.528.55l-.002.006c-.097.298-.097.615 0 .912.087.256.279.457.524.552l.006.002c.273.097.573.097.846 0 .124-.048.234-.121.324-.214.092-.1.162-.216.205-.341.052-.147.076-.301.073-.456zm3.418.478l.041.102c.015-.036.028-.069.044-.102.017-.04.034-.073.052-.105l-.002.005.978-1.694c.019-.03.037-.048.056-.053.02-.006.043-.009.066-.009h.015-.001.289v2.755h-.342v-2.11c-.001-.014-.001-.031-.001-.048s.001-.033.001-.05v.002l-.984 1.718c-.013.026-.033.048-.057.062h-.001c-.023.014-.052.022-.082.022h-.057c-.03.001-.06-.007-.084-.022s-.044-.036-.057-.062v-.001l-1.013-1.73v2.212h-.331v-2.75h.303c.024 0 .046.003.068.01h-.002c.024.011.042.029.053.052v.001l.999 1.696c.018.028.035.06.048.094l.001.004zm3.681-.136v1.031h-.383v-2.75h.887c.158 0 .311.022.455.063l-.012-.003c.124.034.239.092.337.171.085.074.15.167.191.27.045.112.067.232.066.352.002.121-.022.24-.071.352-.049.109-.119.201-.205.274l-.001.001c-.095.08-.209.143-.333.181l-.007.002c-.149.045-.305.067-.461.064l-.463-.007zm0-.296h.464c.1.002.201-.013.296-.042.083-.027.154-.068.215-.12l-.001.001c.056-.049.1-.11.129-.178l.001-.003c.029-.066.046-.144.046-.225v-.008c0-.008.001-.018.001-.028 0-.071-.015-.138-.041-.199l.001.003c-.032-.074-.077-.137-.133-.188-.126-.094-.285-.15-.457-.15-.02 0-.04.001-.06.002h.003-.464v1.134zm5.146 1.331h-.308c-.03 0-.057-.01-.079-.026-.021-.017-.038-.038-.049-.063v-.001l-.26-.665h-1.307l-.27.665c-.011.025-.027.046-.047.061-.022.017-.051.028-.082.028h-.307l1.148-2.756h.398l1.164 2.756zm-1.895-1.023h1.079l-.455-1.122c-.03-.071-.06-.157-.083-.245l-.003-.013-.044.144c-.015.049-.029.088-.045.126l.003-.009-.452 1.119zm3.548-1.72c.023.013.043.03.058.05l1.674 2.076v-2.139h.342v2.756h-.196c-.027 0-.052-.006-.074-.017h.001a.2334.2334 0 01-.061-.051L22.71 29.53c.002.031.002.063 0 .095v2.049h-.342v-2.756h.203c.024 0 .047.004.068.013zm4.897 1.647v1.094h-.383v-1.094l-1.058-1.66H26.446c.028 0 .054.009.075.024.021.018.038.038.052.061l.001.001.662 1.07c.026.045.049.088.068.128s.034.078.048.116l.05-.118c.021-.049.043-.09.068-.13l-.002.004.653-1.078c.014-.022.031-.042.05-.059.02-.017.047-.027.076-.027h.352l-1.06 1.667zm-15.566-6.284c.167.02.335.037.506.051 2.582-1.101 4.767-2.902 6.281-5.18s2.29-4.93 2.231-7.625l-2.846-2.712c.189.894.297 1.921.297 2.974 0 2.015-.396 3.937-1.115 5.694l.036-.1c-1.09 2.731-2.957 5.12-5.39 6.899z"/><path d="M10.954 24.167l.077.015c2.6-1.773 4.583-4.247 5.692-7.104.627-1.564.991-3.378.991-5.276 0-1.296-.17-2.553-.488-3.748l.023.101-4.054-3.862c1.269 2.397 2.015 5.239 2.015 8.255 0 .701-.04 1.393-.119 2.074l.008-.083c-.397 3.519-1.834 6.857-4.144 9.628zm13.75-9.443c-.688 2.962-2.361 5.632-4.77 7.616-.665.553-1.406 1.066-2.191 1.51l-.075.039c2.039-.578 3.804-1.556 5.285-2.851l-.016.013c1.465-1.281 2.625-2.875 3.381-4.679l.031-.084-1.645-1.565z"/><path d="M24.06 14.288l-2.341-2.23c-.053 2.681-.865 5.162-2.23 7.249l.032-.053c-1.394 2.169-3.373 3.943-5.729 5.137h.012c.525 0 1.049-.03 1.572-.089 2.251-.884 4.15-2.237 5.649-3.95l.014-.017c1.454-1.66 2.512-3.704 3.005-5.958l.016-.089zM11.294 2.664L8.501 0c-2.497.919-4.644 2.535-6.16 4.636S.008 9.225.001 11.775c.01 2.818 1.005 5.552 2.829 7.77s4.372 3.793 7.242 4.476c2.562-2.973 4.061-6.647 4.281-10.488s-.851-7.648-3.059-10.87zm19.218 11.214c-.01-3.343-1.409-6.547-3.89-8.91s-5.843-3.696-9.352-3.706c-1.622-.002-3.23.284-4.741.841l17.099 16.29c.559-1.335.884-2.886.884-4.513v-.001z"/></symbol><symbol id="icon-logo4" viewBox="0 0 60 32"><path d="M9.229 9.548h-.002c-1.683 0-3.048 1.331-3.048 2.971v.002c0 1.64 1.365 2.971 3.048 2.971h.002c1.683 0 3.048-1.331 3.048-2.971v-.002c0-1.64-1.365-2.97-3.048-2.97zm22.501-.949c-.005-2.279-.936-4.463-2.59-6.075C27.489.913 25.247.005 22.909 0c-2.339.004-4.581.912-6.236 2.523s-2.585 3.797-2.59 6.076v12.566S31.728 19.25 31.73 8.601v-.002zM0 25.289c.008 1.659.697 3.155 1.801 4.226l.002.001c1.121 1.086 2.65 1.756 4.336 1.758 1.686-.001 3.215-.671 4.337-1.759l-.002.002c1.106-1.071 1.794-2.567 1.803-4.224v-8.746S-.001 17.882-.001 25.29zm6.14 1.566h-.003c-.331 0-.639-.098-.897-.267l.006.004c-.261-.171-.465-.41-.588-.693l-.004-.01c-.077-.177-.122-.383-.122-.599 0-.108.011-.214.033-.315l-.002.01c.063-.304.216-.583.441-.802.22-.213.5-.365.813-.427l.01-.002c.312-.061.635-.03.929.089s.545.319.722.577c.17.244.271.546.271.872 0 .216-.045.422-.125.609l.004-.01c-.08.191-.199.365-.348.511s-.327.262-.522.341c-.182.076-.394.12-.616.12h-.001v-.006zm12.532-.971h-1.256v1.297h-.655v-3.173h2.067v.53h-1.412v.819h1.255v.528zm3.143-.218c0 .313-.056.586-.166.822s-.269.417-.476.545c-.194.121-.43.192-.682.192h-.025.001c-.012 0-.026.001-.039.001-.504 0-.939-.296-1.141-.723l-.003-.008c-.109-.23-.173-.5-.173-.785v-.028.001-.158c0-.313.056-.588.168-.825.113-.238.272-.42.477-.547.206-.128.442-.192.707-.192s.499.064.704.192c.206.127.365.309.477.547s.17.511.17.822v.141zm-.662-.144c0-.333-.06-.586-.179-.759-.106-.157-.284-.26-.485-.26-.009 0-.018 0-.027.001h.001-.024c-.201 0-.378.102-.482.256l-.001.002c-.119.17-.18.42-.182.749v.155c0 .324.06.576.179.755s.291.268.515.268c.008 0 .017.001.026.001.2 0 .375-.101.479-.255l.001-.002c.118-.173.177-.424.179-.755v-.155zm2.783.826v-.018c0-.108-.051-.204-.131-.264l-.001-.001c-.087-.067-.244-.137-.47-.21-.209-.065-.388-.139-.558-.227l.019.009c-.36-.195-.541-.457-.541-.787 0-.171.048-.324.144-.458s.236-.24.417-.316c.182-.075.385-.113.61-.113s.429.042.606.124c.178.082.315.197.412.347.099.15.149.32.149.511h-.655c0-.146-.045-.258-.137-.338-.092-.082-.22-.123-.386-.123-.16 0-.284.034-.372.103-.082.058-.134.152-.134.259v.008c0 .103.052.189.155.259.105.07.258.135.461.196.372.112.643.251.813.417s.255.372.255.618c0 .275-.104.491-.312.647s-.487.234-.839.234c-.244 0-.467-.045-.667-.133-.189-.08-.344-.207-.458-.365l-.002-.003c-.099-.147-.157-.328-.157-.522v-.019.001h.656c0 .35.21.525.628.525.156 0 .277-.031.365-.094.079-.057.131-.149.131-.253v-.014.001zm3.49-1.811h-.972v2.644H25.8v-2.644h-.959v-.53h2.586v.53zm2.286 1.268h-1.256v.85h1.474v.525h-2.128v-3.173h2.124v.53h-1.47v.756h1.256v.513zm1.777.214h-.521v1.162h-.655v-3.173h1.18c.374 0 .664.083.868.251s.305.403.305.708c0 .216-.048.397-.141.543-.105.152-.25.271-.419.341l-.006.002.687 1.297v.03h-.703l-.595-1.162zm-.521-.53h.528c.164 0 .291-.042.381-.124.084-.082.136-.197.136-.323 0-.008 0-.017-.001-.025v.001c0-.15-.043-.268-.129-.353-.084-.086-.214-.129-.39-.129h-.526v.953zm3.963.573v1.119h-.655v-3.173h1.239c.238 0 .447.043.628.131s.321.211.418.372c.097.16.146.342.146.548 0 .311-.106.557-.32.737-.212.179-.506.268-.883.268h-.573zm0-.529h.584c.173 0 .305-.041.394-.123.092-.081.138-.197.138-.348 0-.007.001-.015.001-.023 0-.137-.053-.262-.139-.355-.092-.096-.218-.145-.38-.149h-.599v.997zm4.138.272h-1.255v.85h1.474v.525H37.16v-3.173h2.124v.53h-1.469v.756h1.255v.513zm3.035-1.268h-.972v2.644h-.655v-2.644h-.959v-.53h2.585v.53zm2.284 1.268h-1.255v.85h1.474v.525h-2.128v-3.173h2.124v.53h-1.47v.756h1.256v.513zm1.778.214h-.521v1.162h-.654v-3.173h1.18c.375 0 .665.083.868.251s.305.403.305.708c0 .216-.047.397-.141.543-.105.152-.249.271-.419.341l-.006.002.687 1.297v.03h-.703l-.595-1.162zm-.521-.53h.528c.164 0 .29-.042.381-.124.084-.082.135-.196.135-.322 0-.009 0-.017-.001-.026v.001c0-.15-.042-.268-.128-.353-.085-.086-.214-.129-.391-.129h-.525v.953zm3.843.859c0-.006.001-.012.001-.018 0-.107-.051-.203-.13-.264l-.001-.001c-.088-.067-.245-.137-.471-.21-.209-.065-.388-.139-.558-.227l.019.009c-.36-.195-.541-.457-.541-.787 0-.171.048-.324.144-.458s.236-.24.417-.316c.181-.075.385-.113.61-.113s.429.042.606.124c.177.082.315.197.412.347.099.15.149.32.149.511h-.655c0-.146-.045-.258-.137-.338-.092-.082-.22-.123-.386-.123-.16 0-.284.034-.372.103-.082.058-.134.152-.134.259v.008c0 .103.052.189.155.259.105.07.258.135.46.196.372.112.644.251.813.417s.255.372.255.618c0 .275-.104.491-.312.647s-.487.234-.839.234c-.244 0-.467-.045-.667-.133-.188-.08-.344-.207-.458-.365l-.002-.003c-.099-.147-.157-.328-.157-.522v-.019.001h.656c0 .35.208.525.627.525.156 0 .277-.031.365-.094.079-.057.13-.149.13-.253v-.014.001z"/></symbol><symbol id="icon-logo5" viewBox="0 0 40 32"><path d="M3.056 26.742c.157.194.24.438.236.688.001.016.001.035.001.053 0 .324-.141.615-.365.815l-.001.001c-.304.231-.681.343-1.061.317H.001v-4.361h1.827c.031-.002.067-.003.103-.003.341 0 .657.11.914.297l-.004-.003c.218.184.355.457.355.763 0 .018-.001.037-.002.055v-.003c.011.24-.065.477-.212.667-.142.173-.338.293-.556.34.247.046.471.177.63.373zm-2.188-.658h.78c.178.014.354-.038.497-.145.104-.095.169-.232.169-.383 0-.015-.001-.03-.002-.045v.002c.001-.011.001-.024.001-.037 0-.153-.064-.291-.167-.389-.124-.093-.281-.15-.45-.15-.021 0-.043.001-.064.003h.003-.767v1.144zm1.354 1.672c.114-.1.186-.246.186-.408 0-.012 0-.024-.001-.036v.002c.001-.01.001-.021.001-.032 0-.166-.073-.314-.189-.416l-.001-.001c-.132-.099-.299-.159-.48-.159-.018 0-.036.001-.054.002h.002-.818v1.199h.829c.187.011.372-.042.524-.151zm4.568.861l-1.016-1.704h-.382v1.704h-.874v-4.361h1.654c.034-.003.074-.004.114-.004.396 0 .76.142 1.042.377l-.003-.002c.245.251.397.595.397.974 0 .313-.103.601-.277.834l.003-.004c-.204.235-.483.392-.789.443l1.083 1.743h-.95zm-1.398-2.299h.715c.497 0 .745-.22.745-.66.001-.011.001-.024.001-.037 0-.176-.07-.336-.184-.453-.133-.112-.306-.18-.496-.18-.024 0-.047.001-.07.003h.003-.724l.009 1.328zm6.176 1.421H9.826l-.308.878h-.916l1.6-4.313h.991l1.593 4.312h-.916l-.301-.878zm-.233-.66l-.637-1.84-.637 1.84h1.273zm6.215 1.538h-.869l-1.946-2.965v2.965h-.865v-4.361h.865l1.946 2.982v-2.982h.868v4.361zm4.952-1.044c-.182.33-.45.593-.775.764l-.01.005c-.378.191-.797.286-1.22.274h-1.546v-4.361h1.546c.02-.001.043-.001.067-.001.42 0 .817.1 1.168.277l-.015-.007c.332.168.606.433.786.761.171.333.272.727.272 1.144s-.1.811-.278 1.158l.007-.014zm-.993-.104c.239-.278.384-.642.384-1.041s-.145-.763-.386-1.043l.002.002c-.264-.232-.612-.374-.993-.374-.033 0-.066.001-.098.003h.004-.603v2.823h.603c.028.002.061.003.094.003.381 0 .729-.141.994-.375l-.002.001zM12.111 0s11.201 4.246 10.964 10.39v10.392S11.882 16.534 12.116 10.39L12.111 0zm20.942 18.349c2.005-1.402 4.428-2.346 7.049-2.628l.068-.006v-3.253c-2.995 1.181-5.437 3.227-7.081 5.827l-.035.06z"/><path d="M31.782 19.329c1.749-3.487 4.693-6.158 8.283-7.513l.105-.035V2.408S24.218 8.456 24.555 17.205v14.796s.711-.27 1.829-.778c0-.473 0-.95.05-1.43.35-4.206 2.343-7.888 5.327-10.447l.021-.017z"/><path d="M30.266 24.825c.084-1.026.27-2.041.558-3.03-2.038 2.401-3.303 5.514-3.378 8.921v.016c1.299-.625 2.304-1.166 3.286-1.741l-.218.118c-.191-.908-.3-1.952-.3-3.021 0-.445.019-.885.056-1.32l-.004.057zm.634.053c-.031.359-.049.777-.049 1.199 0 .948.09 1.874.261 2.772l-.015-.092c4.358-2.619 9.255-6.664 9.067-11.553v-.426c-3.246.375-6.107 1.788-8.297 3.894l.005-.005c-.501 1.234-.847 2.664-.968 4.158l-.003.052z"/></symbol><symbol id="icon-logo6" viewBox="0 0 62 32"><path d="M31.123 14.854c-.251-.36-.401-.806-.401-1.287 0-.051.002-.101.005-.15v.007-2.074c0-.637.132-1.12.394-1.45s.715-.495 1.356-.494c.602 0 1.03.141 1.282.422.275.359.41.798.379 1.241v.487h-1.077v-.494c0-.019.001-.041.001-.064 0-.148-.012-.293-.034-.435l.002.016c-.017-.115-.073-.214-.153-.287-.095-.071-.215-.113-.345-.113-.016 0-.032.001-.048.002h.002c-.014-.001-.029-.002-.045-.002-.137 0-.264.045-.367.121l.002-.001c-.09.081-.154.19-.178.313l-.001.004c-.031.169-.045.341-.042.513v2.518c-.002.029-.003.062-.003.096 0 .222.052.432.145.619l-.004-.008c.055.075.128.134.212.171l.003.001c.063.027.136.044.213.044.023 0 .045-.001.067-.004h-.003c.013.001.029.002.044.002.128 0 .245-.044.338-.117l-.001.001c.084-.079.142-.184.16-.303v-.003c.026-.167.037-.336.034-.504v-.511h1.077v.466c.003.038.004.083.004.128 0 .442-.141.85-.381 1.183l.004-.006c-.247.308-.669.462-1.288.462s-1.088-.164-1.354-.506zm4.485.022c-.272-.323-.408-.794-.408-1.416v-2.183c0-.616.136-1.082.408-1.399s.726-.474 1.364-.473c.633 0 1.085.158 1.358.473.271.317.41.783.41 1.399v2.183c0 .616-.139 1.089-.415 1.414-.277.325-.727.487-1.354.487s-1.09-.164-1.364-.485zm1.865-.524c.097-.202.142-.424.129-.646v-2.672c.001-.021.002-.047.002-.072 0-.204-.048-.397-.133-.569l.003.007c-.056-.076-.13-.136-.216-.173l-.003-.001c-.062-.027-.135-.042-.211-.042-.026 0-.051.002-.076.005h.003a.54618.54618 0 00-.073-.005.552.552 0 00-.216.044l.004-.001c-.09.038-.164.098-.219.172l-.001.001c-.098.197-.143.415-.129.633v2.685c-.014.223.031.444.129.646.062.067.138.121.222.158l.004.002c.082.036.177.057.277.057s.195-.021.281-.059l-.005.002c.089-.039.164-.093.226-.16v-.013zm2.562-4.884h1.16l.872 4.028.892-4.028h1.128l.113 5.813h-.833l-.089-4.04-.861 4.04h-.669l-.892-4.054-.083 4.054h-.843l.104-5.812zm5.465 0h1.806c1.04 0 1.56.55 1.56 1.651 0 1.054-.547 1.58-1.643 1.579h-.614v2.583h-1.115l.007-5.812zm1.543 2.484c.11.014.222.004.327-.028.106-.031.204-.085.286-.155.128-.197.184-.427.16-.657.001-.02.001-.044.001-.067 0-.163-.02-.322-.057-.474l.003.014c-.017-.062-.045-.115-.083-.161l.001.001c-.039-.047-.086-.087-.139-.116l-.002-.001c-.129-.059-.279-.094-.437-.094-.021 0-.042.001-.062.002h.003-.433v1.736h.433zm3.431-2.484h1.197l1.229 5.813h-1.039l-.243-1.341H50.55l-.25 1.341h-1.055l1.229-5.812zm1.023 3.799l-.417-2.44-.417 2.44h.835zm2.395-3.799h.779l1.494 3.316V9.468h.925v5.812h-.742l-1.503-3.462v3.462h-.957l.002-5.812zm5.366 3.596l-1.242-3.588h1.046l.758 2.305.711-2.305h1.023l-1.226 3.588v2.216h-1.071v-2.216zm-26.413 4.758v.304h-.91v2.362h-.381v-2.362h-.914v-.304h2.205zm2.852 2.666h-.302c-.028 0-.054-.01-.075-.026-.022-.015-.038-.036-.048-.06v-.001l-.263-.633h-1.262l-.264.633a.1814.1814 0 01-.04.072c-.021.016-.047.025-.076.025h-.301l1.115-2.666h.387l1.128 2.655zm-1.847-.99h1.053l-.446-1.085c-.028-.067-.057-.15-.08-.236l-.003-.014-.042.141-.04.111-.442 1.083zm3.769.728c.07.003.139.003.209 0 .061-.006.12-.017.179-.032.063-.015.117-.032.169-.052l-.009.003c.049-.019.099-.042.15-.065v-.6h-.451c-.021 0-.041-.008-.055-.021-.014-.011-.022-.027-.022-.046v-.208h.865v1.022c-.135.092-.292.166-.459.214l-.012.003c-.078.023-.173.043-.269.055l-.009.001c-.096.011-.208.017-.321.017h-.018c-.197 0-.386-.037-.56-.103l.011.004c-.173-.066-.321-.161-.446-.279l.001.001c-.12-.117-.218-.258-.285-.414l-.003-.008c-.065-.159-.103-.343-.103-.535v-.018-.016c0-.195.037-.38.105-.551l-.004.01c.064-.158.161-.301.287-.422.127-.12.279-.214.446-.277.191-.068.394-.102.598-.099.104 0 .207.007.31.023.09.014.179.036.266.067.078.028.153.063.223.106.069.042.134.088.195.139l-.108.165c-.009.015-.021.027-.036.036-.015.009-.032.014-.051.014-.026-.001-.05-.008-.07-.021h.001c-.044-.023-.079-.043-.114-.066l.005.003c-.042-.026-.092-.05-.143-.07l-.007-.002c-.057-.023-.126-.043-.197-.058l-.008-.001c-.081-.015-.173-.023-.268-.023h-.016.001-.013c-.15 0-.293.027-.425.077l.008-.003c-.125.047-.237.119-.328.211-.093.096-.163.209-.207.332-.047.132-.075.285-.075.444s.027.312.078.454l-.003-.009c.049.125.125.24.223.335.092.092.202.163.326.211.142.046.292.064.442.053zm3.553-.042h1.217v.304h-1.59v-2.666h.381l-.009 2.362zm2.484.303h-.381v-2.664h.381v2.666zm1.418-2.653c.023.013.042.029.057.048l1.63 2.01c-.001-.014-.002-.031-.002-.048s.001-.033.002-.05v.002-1.986h.332v2.676h-.191c-.004 0-.009.001-.013.001-.025 0-.049-.006-.071-.016h.001a.26607.26607 0 01-.06-.05l-1.628-2.007v2.072h-.319v-2.665h.198c.022 0 .043.004.063.013zm4.827-.012v.294H48.55v.88h1.095v.282H48.55v.91h1.351v.294h-1.743v-2.659h1.743zM9.95 1.359l16.929 4.55v15.946L9.952 17.308V1.359zM8.865 0v18.081l19.098 5.135V5.136L8.865-.001z"/><path d="M19.1 31.61L0 26.471V8.391l19.1 5.137V31.61z"/><path d="M9.181 1.155l16.707 4.493-7.105 6.728-16.71-4.495L9.18 1.154zM8.865 0L0 8.392l19.1 5.137 8.863-8.392L8.865 0zm11.31 30.593l7.788-7.374-7.788-2.096v9.47z"/></symbol><symbol id="icon-smartphone" viewBox="0 0 20 32"><path d="M17 0H3C1.346 0 0 1.346 0 3v26c0 1.654 1.346 3 3 3h14c1.654 0 3-1.346 3-3V3c0-1.654-1.346-3-3-3zM3 2h14c.552 0 1 .448 1 1v21H2V3c0-.552.448-1 1-1zm14 28H3c-.552 0-1-.448-1-1v-3h16v3c0 .552-.448 1-1 1z"/><path d="M4.708 27.478c.18.163.293.399.293.66s-.113.497-.292.659l-.001.001c-.186.17-.435.275-.708.275s-.522-.104-.709-.275l.001.001c-.18-.163-.293-.399-.293-.66s.113-.497.292-.659l.001-.001c.186-.17.435-.275.708-.275s.522.104.709.275l-.001-.001z"/></symbol><symbol id="icon-twitter" viewBox="0 0 32 32"><path d="M32 6.078c-1.1.493-2.376.857-3.713 1.028l-.068.007c1.36-.817 2.382-2.078 2.873-3.579l.013-.046c-1.197.722-2.591 1.273-4.076 1.573l-.084.014c-1.2-1.279-2.9-2.076-4.787-2.076-3.622 0-6.558 2.936-6.558 6.558v.004c0 .52.043 1.021.152 1.496-5.454-.266-10.28-2.88-13.522-6.861-.564.949-.899 2.092-.902 3.313v.001c0 2.272 1.171 4.286 2.914 5.451-1.091-.03-2.107-.325-2.994-.823l.033.017v.072c.003 3.165 2.236 5.807 5.213 6.44l.043.008c-.499.136-1.071.215-1.662.215h-.061.003c-.419 0-.843-.024-1.242-.112.85 2.598 3.261 4.509 6.13 4.57-2.215 1.746-5.045 2.8-8.122 2.8H1.57h.001-.062c-.531 0-1.055-.034-1.569-.099l.061.006c2.826 1.846 6.287 2.944 10.004 2.944h.063-.003c12.072 0 18.672-10 18.672-18.669 0-.288-.01-.57-.024-.848 1.299-.936 2.39-2.064 3.258-3.355l.03-.047z"/></symbol></defs></svg>